<svg width="24" height="24" viewBox="0 0 24 24" fill="none" xmlns="http://www.w3.org/2000/svg">
<path d="M13.5 6.75V17.25C13.5 17.4489 13.421 17.6397 13.2803 17.7803C13.1397 17.921 12.9489 18 12.75 18C12.5511 18 12.3603 17.921 12.2197 17.7803C12.079 17.6397 12 17.4489 12 17.25V6.75C12 6.55109 12.079 6.36032 12.2197 6.21967C12.3603 6.07902 12.5511 6 12.75 6C12.9489 6 13.1397 6.07902 13.2803 6.21967C13.421 6.36032 13.5 6.55109 13.5 6.75ZM21.75 6H16.5C16.3011 6 16.1103 6.07902 15.9697 6.21967C15.829 6.36032 15.75 6.55109 15.75 6.75V17.25C15.75 17.4489 15.829 17.6397 15.9697 17.7803C16.1103 17.921 16.3011 18 16.5 18C16.6989 18 16.8897 17.921 17.0303 17.7803C17.171 17.6397 17.25 17.4489 17.25 17.25V12.75H21C21.1989 12.75 21.3897 12.671 21.5303 12.5303C21.671 12.3897 21.75 12.1989 21.75 12C21.75 11.8011 21.671 11.6103 21.5303 11.4697C21.3897 11.329 21.1989 11.25 21 11.25H17.25V7.5H21.75C21.9489 7.5 22.1397 7.42098 22.2803 7.28033C22.421 7.13968 22.5 6.94891 22.5 6.75C22.5 6.55109 22.421 6.36032 22.2803 6.21967C22.1397 6.07902 21.9489 6 21.75 6ZM9 11.25H6.75C6.55109 11.25 6.36032 11.329 6.21967 11.4697C6.07902 11.6103 6 11.8011 6 12C6 12.1989 6.07902 12.3897 6.21967 12.5303C6.36032 12.671 6.55109 12.75 6.75 12.75H8.25V14.25C8.25 14.8467 8.01295 15.419 7.59099 15.841C7.16903 16.2629 6.59674 16.5 6 16.5C5.40326 16.5 4.83097 16.2629 4.40901 15.841C3.98705 15.419 3.75 14.8467 3.75 14.25V9.75C3.75 9.15326 3.98705 8.58097 4.40901 8.15901C4.83097 7.73705 5.40326 7.5 6 7.5C7.04906 7.5 8.02594 8.22563 8.27344 9.1875C8.32317 9.3802 8.44741 9.54525 8.61882 9.64634C8.79025 9.74743 8.9948 9.77629 9.1875 9.72656C9.3802 9.67683 9.54525 9.55259 9.64634 9.38117C9.74743 9.20975 9.77629 9.0052 9.72656 8.8125C9.30656 7.18313 7.74 6 6 6C5.00544 6 4.05161 6.39509 3.34835 7.09835C2.64509 7.80161 2.25 8.75544 2.25 9.75V14.25C2.25 15.2446 2.64509 16.1984 3.34835 16.9017C4.05161 17.6049 5.00544 18 6 18C6.99456 18 7.94839 17.6049 8.65165 16.9017C9.35491 16.1984 9.75 15.2446 9.75 14.25V12C9.75 11.8011 9.67098 11.6103 9.53033 11.4697C9.38968 11.329 9.19891 11.25 9 11.25Z" fill="#171717"/>
</svg>
