<svg width="24" height="24" viewBox="0 0 24 24" fill="none" xmlns="http://www.w3.org/2000/svg">
<path d="M22.4232 9.11824C22.3294 8.82998 22.1524 8.57592 21.9145 8.38807C21.6766 8.20022 21.3885 8.08698 21.0863 8.06261L15.5551 7.61636L13.4194 2.45168C13.3039 2.17026 13.1074 1.92953 12.8547 1.76012C12.6021 1.5907 12.3047 1.50024 12.0005 1.50024C11.6963 1.50024 11.399 1.5907 11.1463 1.76012C10.8937 1.92953 10.6971 2.17026 10.5816 2.45168L8.44788 7.61543L2.91381 8.06261C2.61117 8.08821 2.3228 8.20255 2.08485 8.39131C1.8469 8.58006 1.66994 8.83485 1.57615 9.12373C1.48236 9.41261 1.4759 9.72275 1.55759 10.0153C1.63928 10.3078 1.80548 10.5697 2.03538 10.7682L6.25413 14.4086L4.96881 19.8517C4.89693 20.1474 4.91453 20.4578 5.01938 20.7435C5.12423 21.0292 5.3116 21.2773 5.55771 21.4563C5.80382 21.6353 6.09757 21.7371 6.40167 21.7489C6.70576 21.7606 7.00649 21.6818 7.26569 21.5223L12.0001 18.6086L16.7373 21.5223C16.9965 21.6799 17.2967 21.7572 17.5998 21.7446C17.903 21.732 18.1956 21.6299 18.4409 21.4513C18.6861 21.2727 18.8731 21.0255 18.9782 20.7408C19.0832 20.4562 19.1017 20.1468 19.0313 19.8517L17.7413 14.4076L21.9601 10.7673C22.1918 10.5691 22.3595 10.3066 22.442 10.0131C22.5244 9.71952 22.5179 9.40808 22.4232 9.11824ZM20.9851 9.63105L16.4194 13.5686C16.3153 13.6583 16.2379 13.7749 16.1955 13.9057C16.1532 14.0365 16.1476 14.1764 16.1794 14.3101L17.5744 20.1976C17.578 20.2057 17.5784 20.2149 17.5754 20.2233C17.5725 20.2317 17.5664 20.2386 17.5585 20.2426C17.5416 20.2557 17.5369 20.2529 17.5229 20.2426L12.3929 17.0879C12.2747 17.0153 12.1388 16.9768 12.0001 16.9768C11.8614 16.9768 11.7254 17.0153 11.6073 17.0879L6.47725 20.2445C6.46319 20.2529 6.45944 20.2557 6.44163 20.2445C6.43371 20.2405 6.42765 20.2335 6.42468 20.2252C6.42172 20.2168 6.42208 20.2076 6.42569 20.1995L7.82069 14.312C7.85248 14.1783 7.84691 14.0384 7.80458 13.9076C7.76226 13.7768 7.68481 13.6602 7.58069 13.5704L3.01506 9.63293C3.00381 9.62355 2.9935 9.61511 3.00288 9.58605C3.01225 9.55699 3.01975 9.56074 3.03381 9.55886L9.02631 9.07511C9.16376 9.06333 9.29529 9.01386 9.40644 8.93215C9.51759 8.85044 9.60405 8.73966 9.65631 8.61199L11.9644 3.02355C11.9719 3.00761 11.9748 3.00011 11.9973 3.00011C12.0198 3.00011 12.0226 3.00761 12.0301 3.02355L14.3438 8.61199C14.3966 8.73971 14.4836 8.85037 14.5952 8.93176C14.7069 9.01315 14.8389 9.06211 14.9766 9.07324L20.9691 9.55699C20.9832 9.55699 20.9916 9.55699 21.0001 9.58418C21.0085 9.61137 21.0001 9.62168 20.9851 9.63105Z" fill="#171717"/>
</svg>
