<svg width="24" height="24" viewBox="0 0 24 24" fill="none" xmlns="http://www.w3.org/2000/svg">
<path d="M22.2806 9.97021L14.7806 2.47021C14.6757 2.36526 14.5421 2.29375 14.3967 2.26473C14.2512 2.23572 14.1004 2.25049 13.9633 2.30719C13.8262 2.36389 13.709 2.45996 13.6265 2.58326C13.5441 2.70657 13.5 2.85156 13.4999 2.9999V6.78271C11.0681 6.99083 8.38213 8.18146 6.17244 10.0555C3.51182 12.313 1.85526 15.2221 1.50744 18.2465C1.48026 18.4816 1.52794 18.7193 1.64368 18.9258C1.75943 19.1322 1.93735 19.2969 2.15212 19.3964C2.36689 19.4959 2.60757 19.5251 2.83991 19.4799C3.07225 19.4347 3.28441 19.3174 3.44619 19.1446C4.47744 18.0468 8.14682 14.5752 13.4999 14.2696V17.9999C13.5 18.1482 13.5441 18.2932 13.6265 18.4165C13.709 18.5398 13.8262 18.6359 13.9633 18.6926C14.1004 18.7493 14.2512 18.7641 14.3967 18.7351C14.5421 18.706 14.6757 18.6345 14.7806 18.5296L22.2806 11.0296C22.4208 10.889 22.4996 10.6985 22.4996 10.4999C22.4996 10.3013 22.4208 10.1108 22.2806 9.97021ZM14.9999 16.1896V13.4999C14.9999 13.301 14.9209 13.1102 14.7803 12.9696C14.6396 12.8289 14.4489 12.7499 14.2499 12.7499C11.6174 12.7499 9.05338 13.4371 6.629 14.7936C5.39427 15.4876 4.24383 16.3219 3.20057 17.2799C3.74432 15.0449 5.11494 12.9196 7.14276 11.1993C9.31963 9.35333 11.9765 8.2499 14.2499 8.2499C14.4489 8.2499 14.6396 8.17088 14.7803 8.03023C14.9209 7.88957 14.9999 7.69881 14.9999 7.4999V4.81115L20.6896 10.4999L14.9999 16.1896Z" fill="#171717"/>
</svg>
