<svg width="24" height="24" viewBox="0 0 24 24" fill="none" xmlns="http://www.w3.org/2000/svg">
<path d="M20.031 15.5307C19.9614 15.6005 19.8787 15.6558 19.7876 15.6935C19.6966 15.7313 19.599 15.7507 19.5004 15.7507C19.4019 15.7507 19.3043 15.7313 19.2132 15.6935C19.1222 15.6558 19.0394 15.6005 18.9698 15.5307L12.0004 8.56041L5.03104 15.5307C4.89031 15.6715 4.69944 15.7505 4.50042 15.7505C4.30139 15.7505 4.11052 15.6715 3.96979 15.5307C3.82906 15.39 3.75 15.1991 3.75 15.0001C3.75 14.8011 3.82906 14.6102 3.96979 14.4695L11.4698 6.96948C11.5394 6.89974 11.6222 6.84443 11.7132 6.80668C11.8043 6.76894 11.9019 6.74951 12.0004 6.74951C12.099 6.74951 12.1966 6.76894 12.2876 6.80668C12.3787 6.84443 12.4614 6.89974 12.531 6.96948L20.031 14.4695C20.1008 14.5391 20.1561 14.6218 20.1938 14.7129C20.2316 14.8039 20.251 14.9015 20.251 15.0001C20.251 15.0987 20.2316 15.1963 20.1938 15.2873C20.1561 15.3784 20.1008 15.4611 20.031 15.5307Z" fill="#171717"/>
</svg>
