<svg width="24" height="24" viewBox="0 0 24 24" fill="none" xmlns="http://www.w3.org/2000/svg">
<path d="M19.281 11.0307C19.2114 11.1005 19.1287 11.1558 19.0376 11.1935C18.9466 11.2313 18.849 11.2507 18.7504 11.2507C18.6519 11.2507 18.5543 11.2313 18.4632 11.1935C18.3722 11.1558 18.2894 11.1005 18.2198 11.0307L12.7504 5.56041V20.2501C12.7504 20.449 12.6714 20.6398 12.5307 20.7804C12.3901 20.9211 12.1993 21.0001 12.0004 21.0001C11.8015 21.0001 11.6107 20.9211 11.4701 20.7804C11.3294 20.6398 11.2504 20.449 11.2504 20.2501V5.56041L5.78104 11.0307C5.64031 11.1715 5.44944 11.2505 5.25042 11.2505C5.05139 11.2505 4.86052 11.1715 4.71979 11.0307C4.57906 10.89 4.5 10.6991 4.5 10.5001C4.5 10.3011 4.57906 10.1102 4.71979 9.96948L11.4698 3.21948C11.5394 3.14974 11.6222 3.09443 11.7132 3.05668C11.8043 3.01894 11.9019 2.99951 12.0004 2.99951C12.099 2.99951 12.1966 3.01894 12.2876 3.05668C12.3787 3.09443 12.4614 3.14974 12.531 3.21948L19.281 9.96948C19.3508 10.0391 19.4061 10.1218 19.4438 10.2129C19.4816 10.3039 19.501 10.4015 19.501 10.5001C19.501 10.5987 19.4816 10.6963 19.4438 10.7873C19.4061 10.8784 19.3508 10.9611 19.281 11.0307Z" fill="#171717"/>
</svg>
