<svg width="24" height="24" viewBox="0 0 24 24" fill="none" xmlns="http://www.w3.org/2000/svg">
<path d="M5.25 9V15C5.25 15.1989 5.17098 15.3897 5.03033 15.5303C4.88968 15.671 4.69891 15.75 4.5 15.75C4.30109 15.75 4.11032 15.671 3.96967 15.5303C3.82902 15.3897 3.75 15.1989 3.75 15V9C3.75 8.80109 3.82902 8.61032 3.96967 8.46967C4.11032 8.32902 4.30109 8.25 4.5 8.25C4.69891 8.25 4.88968 8.32902 5.03033 8.46967C5.17098 8.61032 5.25 8.80109 5.25 9ZM8.25 2.25C8.05109 2.25 7.86032 2.32902 7.71967 2.46967C7.57902 2.61032 7.5 2.80109 7.5 3V21C7.5 21.1989 7.57902 21.3897 7.71967 21.5303C7.86032 21.671 8.05109 21.75 8.25 21.75C8.44891 21.75 8.63968 21.671 8.78033 21.5303C8.92098 21.3897 9 21.1989 9 21V3C9 2.80109 8.92098 2.61032 8.78033 2.46967C8.63968 2.32902 8.44891 2.25 8.25 2.25ZM12 5.25C11.8011 5.25 11.6103 5.32902 11.4697 5.46967C11.329 5.61032 11.25 5.80109 11.25 6V18C11.25 18.1989 11.329 18.3897 11.4697 18.5303C11.6103 18.671 11.8011 18.75 12 18.75C12.1989 18.75 12.3897 18.671 12.5303 18.5303C12.671 18.3897 12.75 18.1989 12.75 18V6C12.75 5.80109 12.671 5.61032 12.5303 5.46967C12.3897 5.32902 12.1989 5.25 12 5.25ZM15.75 8.25C15.5511 8.25 15.3603 8.32902 15.2197 8.46967C15.079 8.61032 15 8.80109 15 9V15C15 15.1989 15.079 15.3897 15.2197 15.5303C15.3603 15.671 15.5511 15.75 15.75 15.75C15.9489 15.75 16.1397 15.671 16.2803 15.5303C16.421 15.3897 16.5 15.1989 16.5 15V9C16.5 8.80109 16.421 8.61032 16.2803 8.46967C16.1397 8.32902 15.9489 8.25 15.75 8.25ZM19.5 6.75C19.3011 6.75 19.1103 6.82902 18.9697 6.96967C18.829 7.11032 18.75 7.30109 18.75 7.5V16.5C18.75 16.6989 18.829 16.8897 18.9697 17.0303C19.1103 17.171 19.3011 17.25 19.5 17.25C19.6989 17.25 19.8897 17.171 20.0303 17.0303C20.171 16.8897 20.25 16.6989 20.25 16.5V7.5C20.25 7.30109 20.171 7.11032 20.0303 6.96967C19.8897 6.82902 19.6989 6.75 19.5 6.75Z" fill="#171717"/>
</svg>
