<svg width="24" height="24" viewBox="0 0 24 24" fill="none" xmlns="http://www.w3.org/2000/svg">
<path d="M20.25 4.5H3.75003C3.3522 4.5 2.97067 4.65804 2.68937 4.93934C2.40806 5.22064 2.25003 5.60218 2.25003 6V21C2.2483 21.286 2.32921 21.5665 2.48305 21.8076C2.63689 22.0488 2.8571 22.2404 3.11721 22.3594C3.31543 22.4517 3.53138 22.4997 3.75003 22.5C4.10216 22.4992 4.4426 22.3736 4.71096 22.1456L4.7194 22.1391L7.78128 19.5H20.25C20.6479 19.5 21.0294 19.342 21.3107 19.0607C21.592 18.7794 21.75 18.3978 21.75 18V6C21.75 5.60218 21.592 5.22064 21.3107 4.93934C21.0294 4.65804 20.6479 4.5 20.25 4.5ZM20.25 18H7.50003C7.31994 18.0001 7.1459 18.065 7.00971 18.1828L3.75003 21V6H20.25V18Z" fill="#171717"/>
</svg>
