<svg width="24" height="24" viewBox="0 0 24 24" fill="none" xmlns="http://www.w3.org/2000/svg">
<g clip-path="url(#clip0_94_959)">
<path d="M21.5395 10.3279C21.6271 10.3279 21.6981 10.3989 21.6981 10.4864V12.151C21.6981 12.7741 21.6402 13.3832 21.5292 13.9742C20.6706 18.5643 16.6267 22.0332 11.7796 21.9998C6.34072 21.9623 1.98798 17.5678 2.00002 12.1288C2.01199 6.69967 6.41705 2.302 11.849 2.302C14.5103 2.302 16.9249 3.35777 18.6977 5.07273C18.7617 5.13464 18.7634 5.23667 18.7004 5.29961L16.3454 7.65457C16.2848 7.7152 16.1869 7.71678 16.1247 7.65764C15.0121 6.59853 13.5066 5.9483 11.849 5.9483C8.42606 5.9483 5.66967 8.6851 5.64644 12.108C5.62308 15.5533 8.40913 18.3537 11.849 18.3537C14.64 18.3537 17.0006 16.51 17.7791 13.9742H12.0076C11.92 13.9742 11.849 13.9032 11.849 13.8156V10.4864C11.849 10.3988 11.92 10.3278 12.0076 10.3278H21.5395V10.3279Z" fill="#2196F3"/>
<path d="M21.5395 10.3279H20.3505C20.4381 10.3279 20.5091 10.3989 20.5091 10.4864V12.151C20.5091 12.7741 20.4512 13.3832 20.3402 13.9742C19.5211 18.3532 15.8029 21.7117 11.2539 21.9823C11.428 21.9926 11.6032 21.9986 11.7796 21.9998C16.6268 22.0332 20.6706 18.5643 21.5292 13.9742C21.6402 13.3832 21.6981 12.7741 21.6981 12.151V10.4864C21.6981 10.3989 21.6271 10.3279 21.5395 10.3279Z" fill="#1E88E5"/>
<path d="M6.21579 9.55343L3.22461 7.39218C4.90272 4.35703 8.13643 2.302 11.8497 2.302C14.511 2.302 16.9257 3.35777 18.6984 5.07274C18.7625 5.13464 18.7641 5.23667 18.7011 5.29961L16.3462 7.65457C16.2857 7.71509 16.1877 7.71697 16.1257 7.65795C15.0131 6.59864 13.5075 5.94834 11.8497 5.94834C9.35163 5.94834 7.19831 7.42508 6.21579 9.55343Z" fill="#F44336"/>
<path d="M5.35132 8.92943L6.21484 9.55334C7.11164 7.61069 8.98403 6.21159 11.2035 5.9821C11.2202 5.98029 11.2363 5.9781 11.2533 5.97648C11.0579 5.95794 10.86 5.94824 10.6598 5.94824C8.4031 5.94824 6.43637 7.13794 5.35132 8.92943Z" fill="#E53935"/>
<path d="M17.5092 5.07274C17.5732 5.13464 17.5748 5.23667 17.5119 5.29965L15.6004 7.21109C15.7836 7.35036 15.9588 7.49933 16.1252 7.65768C16.1873 7.71682 16.2853 7.71524 16.3459 7.65461L18.7009 5.29965C18.7638 5.23667 18.7622 5.13468 18.6982 5.07274C16.9254 3.35777 14.5108 2.302 11.8495 2.302C11.6498 2.302 11.4516 2.30866 11.2549 2.32039C13.6802 2.46486 15.8693 3.48643 17.5092 5.07274Z" fill="#E53935"/>
<path d="M19.074 18.8445C17.2754 20.7854 14.704 22.0002 11.8491 22.0002C7.99315 22.0002 4.65479 19.7843 3.03809 16.5561L6.09186 14.4634C7.00825 16.7435 9.24082 18.3539 11.8491 18.3539C13.486 18.3539 14.9747 17.7197 16.0828 16.6837L19.074 18.8445Z" fill="#4CAF50"/>
<path d="M6.0919 14.4634L5.19141 15.0804C6.23729 17.0289 8.29401 18.3538 10.6601 18.3538C10.8602 18.3538 11.058 18.344 11.2533 18.3255C8.90453 18.1016 6.93761 16.5678 6.0919 14.4634Z" fill="#43A047"/>
<path d="M11.8491 22.0001C14.704 22.0001 17.2754 20.7853 19.074 18.8445L18.3414 18.3152C16.6526 20.417 14.1191 21.8112 11.2561 21.9822C11.4523 21.9939 11.65 22.0001 11.8491 22.0001Z" fill="#43A047"/>
<path d="M5.64634 12.1509C5.64634 12.9682 5.80446 13.7486 6.09181 14.4632L3.038 16.5558C2.37376 15.2305 2 13.7343 2 12.1509C2 10.4249 2.4439 8.80266 3.2239 7.39209L6.21508 9.55334C5.85005 10.3432 5.64634 11.2235 5.64634 12.1509Z" fill="#FFC107"/>
<path d="M5.19105 15.0803L6.09154 14.4632C5.80419 13.7486 5.64606 12.9682 5.64606 12.151C5.64606 11.2235 5.84978 10.3432 6.21481 9.55336L5.35129 8.92944C4.79054 9.85529 4.4651 10.9417 4.45718 12.108C4.44987 13.1834 4.71637 14.1961 5.19105 15.0803Z" fill="#FFB300"/>
</g>
<defs>
<clipPath id="clip0_94_959">
<rect width="20" height="20" fill="white" transform="translate(2 2.302)"/>
</clipPath>
</defs>
</svg>
