<svg width="24" height="24" viewBox="0 0 24 24" fill="none" xmlns="http://www.w3.org/2000/svg">
<path d="M22.5001 11.9897C22.5008 12.2569 22.4301 12.5195 22.2952 12.7502C22.1604 12.981 21.9664 13.1715 21.7332 13.3022L5.99074 22.3031C5.76483 22.4311 5.50978 22.4989 5.25011 22.5C5.01085 22.4987 4.77537 22.4402 4.56333 22.3293C4.35128 22.2185 4.16883 22.0586 4.0312 21.8628C3.89356 21.6671 3.80475 21.4413 3.77216 21.2043C3.73957 20.9673 3.76415 20.7259 3.84386 20.5003L6.37511 13.005C6.39985 12.9317 6.44664 12.8679 6.50907 12.8222C6.57151 12.7766 6.64653 12.7513 6.72386 12.75H13.5001C13.6029 12.7502 13.7047 12.7293 13.7991 12.6885C13.8935 12.6478 13.9785 12.588 14.0488 12.513C14.1191 12.438 14.1733 12.3494 14.2079 12.2526C14.2426 12.1558 14.2569 12.0529 14.2501 11.9503C14.2331 11.7574 14.1439 11.5781 14.0003 11.4482C13.8567 11.3184 13.6693 11.2476 13.4757 11.25H6.72573C6.64728 11.25 6.5708 11.2254 6.50706 11.1796C6.44332 11.1339 6.39553 11.0693 6.37042 10.995L3.83917 3.5006C3.73842 3.21334 3.72746 2.90223 3.80773 2.60859C3.88801 2.31495 4.05573 2.05269 4.2886 1.85664C4.52148 1.66059 4.8085 1.54004 5.11152 1.51099C5.41454 1.48195 5.71923 1.54579 5.98511 1.69403L21.7351 10.6837C21.9669 10.814 22.16 11.0036 22.2944 11.2331C22.4288 11.4626 22.4998 11.7237 22.5001 11.9897Z" fill="#171717"/>
</svg>
